<svg xmlns="http://www.w3.org/2000/svg" width="1600" height="900" viewBox="0 0 1600 900">
  <defs>
    <linearGradient id="bg" x1="0" y1="0" x2="1" y2="1">
      <stop offset="0" stop-color="#08080d"/>
      <stop offset="0.55" stop-color="#14101f"/>
      <stop offset="1" stop-color="#07070a"/>
    </linearGradient>
    <radialGradient id="glow1" cx="40%" cy="25%" r="70%">
      <stop offset="0" stop-color="#be00ff" stop-opacity="0.25"/>
      <stop offset="0.6" stop-color="#be00ff" stop-opacity="0"/>
      <stop offset="1" stop-color="#000" stop-opacity="0"/>
    </radialGradient>
    <radialGradient id="glow2" cx="75%" cy="55%" r="65%">
      <stop offset="0" stop-color="#ff1493" stop-opacity="0.22"/>
      <stop offset="0.6" stop-color="#ff1493" stop-opacity="0"/>
      <stop offset="1" stop-color="#000" stop-opacity="0"/>
    </radialGradient>
    <filter id="soft" x="-20%" y="-20%" width="140%" height="140%">
      <feGaussianBlur stdDeviation="18"/>
    </filter>
  </defs>
  <rect width="1600" height="900" fill="url(#bg)"/>
  <g filter="url(#soft)">
    <circle cx="600" cy="230" r="460" fill="url(#glow1)"/>
    <circle cx="1200" cy="520" r="420" fill="url(#glow2)"/>
  </g>
  <rect x="120" y="120" width="1360" height="660" rx="42" fill="rgba(255,255,255,0.045)" stroke="rgba(255,255,255,0.12)" />
  <rect x="170" y="180" width="780" height="28" rx="14" fill="rgba(255,255,255,0.16)"/>
  <rect x="170" y="240" width="920" height="18" rx="9" fill="rgba(255,255,255,0.10)"/>
  <rect x="170" y="275" width="860" height="18" rx="9" fill="rgba(255,255,255,0.10)"/>
  <rect x="170" y="310" width="900" height="18" rx="9" fill="rgba(255,255,255,0.10)"/>
  <rect x="170" y="390" width="560" height="220" rx="28" fill="rgba(0,0,0,0.25)" stroke="rgba(255,255,255,0.10)"/>
  <rect x="760" y="390" width="670" height="76" rx="22" fill="rgba(0,0,0,0.25)" stroke="rgba(255,255,255,0.10)"/>
  <rect x="760" y="490" width="670" height="76" rx="22" fill="rgba(0,0,0,0.25)" stroke="rgba(255,255,255,0.10)"/>
  <rect x="760" y="590" width="670" height="76" rx="22" fill="rgba(0,0,0,0.25)" stroke="rgba(255,255,255,0.10)"/>
  <text x="170" y="770" font-family="system-ui, -apple-system, Segoe UI, Roboto, Arial" font-size="44" fill="rgba(255,255,255,0.82)" letter-spacing="0.5">
    Blog — preview
  </text>
</svg>
