<svg xmlns="http://www.w3.org/2000/svg" width="1600" height="900" viewBox="0 0 1600 900">
  <defs>
    <linearGradient id="bg" x1="0" y1="0" x2="1" y2="1">
      <stop offset="0" stop-color="#070b10"/>
      <stop offset="0.6" stop-color="#0b1422"/>
      <stop offset="1" stop-color="#06070b"/>
    </linearGradient>
    <radialGradient id="glow1" cx="30%" cy="35%" r="70%">
      <stop offset="0" stop-color="#00aaff" stop-opacity="0.45"/>
      <stop offset="0.6" stop-color="#00aaff" stop-opacity="0"/>
      <stop offset="1" stop-color="#000" stop-opacity="0"/>
    </radialGradient>
    <radialGradient id="glow2" cx="78%" cy="65%" r="65%">
      <stop offset="0" stop-color="#ff1493" stop-opacity="0.25"/>
      <stop offset="0.6" stop-color="#ff1493" stop-opacity="0"/>
      <stop offset="1" stop-color="#000" stop-opacity="0"/>
    </radialGradient>
    <filter id="soft" x="-20%" y="-20%" width="140%" height="140%">
      <feGaussianBlur stdDeviation="18"/>
    </filter>
  </defs>
  <rect width="1600" height="900" fill="url(#bg)"/>
  <g filter="url(#soft)">
    <circle cx="420" cy="260" r="430" fill="url(#glow1)"/>
    <circle cx="1200" cy="620" r="380" fill="url(#glow2)"/>
  </g>
  <rect x="120" y="120" width="1360" height="660" rx="42" fill="rgba(255,255,255,0.045)" stroke="rgba(255,255,255,0.12)" />
  <rect x="170" y="170" width="520" height="24" rx="12" fill="rgba(255,255,255,0.14)"/>
  <g>
    <rect x="170" y="250" width="520" height="240" rx="24" fill="rgba(0,0,0,0.25)" stroke="rgba(255,255,255,0.10)"/>
    <path d="M220 450 C300 360, 360 420, 430 330 C500 245, 560 310, 640 270" fill="none" stroke="rgba(0,170,255,0.85)" stroke-width="10" stroke-linecap="round"/>
  </g>
  <g>
    <rect x="740" y="250" width="690" height="240" rx="24" fill="rgba(0,0,0,0.25)" stroke="rgba(255,255,255,0.10)"/>
    <rect x="790" y="310" width="120" height="120" rx="18" fill="rgba(255,255,255,0.10)"/>
    <rect x="940" y="290" width="180" height="18" rx="9" fill="rgba(255,255,255,0.12)"/>
    <rect x="940" y="330" width="320" height="14" rx="7" fill="rgba(255,255,255,0.10)"/>
    <rect x="940" y="360" width="280" height="14" rx="7" fill="rgba(255,255,255,0.10)"/>
  </g>
  <text x="170" y="770" font-family="system-ui, -apple-system, Segoe UI, Roboto, Arial" font-size="44" fill="rgba(255,255,255,0.82)" letter-spacing="0.5">
    Dashboard — preview
  </text>
</svg>
